<?xml version="1.0" encoding="UTF-8" standalone="no"?>
<svg
   width="32"
   height="32"
   viewBox="0 0 24 24"
   version="1.1"
   id="svg1"
   sodipodi:docname="moon.svg"
   inkscape:version="1.3 (0e150ed6c4, 2023-07-21)"
   xmlns:inkscape="http://www.inkscape.org/namespaces/inkscape"
   xmlns:sodipodi="http://sodipodi.sourceforge.net/DTD/sodipodi-0.dtd"
   xmlns="http://www.w3.org/2000/svg"
   xmlns:svg="http://www.w3.org/2000/svg">
  <defs
     id="defs1" />
  <sodipodi:namedview
     id="namedview1"
     pagecolor="#ffffff"
     bordercolor="#000000"
     borderopacity="0.25"
     inkscape:showpageshadow="2"
     inkscape:pageopacity="0.0"
     inkscape:pagecheckerboard="0"
     inkscape:deskcolor="#d1d1d1"
     inkscape:zoom="25.96875"
     inkscape:cx="16"
     inkscape:cy="16"
     inkscape:window-width="1920"
     inkscape:window-height="1027"
     inkscape:window-x="-8"
     inkscape:window-y="-8"
     inkscape:window-maximized="1"
     inkscape:current-layer="svg1" />
  <path
     fill="currentColor"
     d="M14 4c.34 0 .68.02 1.01.07C13.1 6.23 12 9.05 12 12s1.1 5.77 3.01 7.93c-.33.05-.67.07-1.01.07c-4.41 0-8-3.59-8-8s3.59-8 8-8m0-2C8.48 2 4 6.48 4 12s4.48 10 10 10c1.82 0 3.53-.5 5-1.35c-2.99-1.73-5-4.95-5-8.65s2.01-6.92 5-8.65A9.973 9.973 0 0 0 14 2z"
     id="path1"
     style="fill:#cccccc;fill-opacity:1" />
</svg>
